<svg xmlns="http://www.w3.org/2000/svg" width="45" height="45" viewBox="0 0 45 45"><path fill="#05aac0" d="M28.33 8.52c.79.02 2.26.42 3.22 2.94l7.9 20.75A19.55 19.55 0 0 0 22.5 2.96 19.55 19.55 0 0 0 5.39 31.94l7.88-20.35c.97-2.51 2.44-2.91 3.24-2.92h.03c.79 0 2.25.37 3.29 2.82l2.5 5.91 2.64-6.09c1.09-2.52 2.66-2.79 3.28-2.79zM7.42 34.91a19.48 19.48 0 0 0 29.98.22l-8.62-22.62a2.88 2.88 0 0 0-.53-.96c-.11.12-.33.39-.56.94l-3.76 8.67 3.63 8.59a4.9 4.9 0 0 1-.22 4.7 4.93 4.93 0 0 1-4.25 2.04H21.4c-1.84 0-3.38-.74-4.23-2.04a4.9 4.9 0 0 1-.19-4.69l3.73-8.61-3.6-8.51a2.88 2.88 0 0 0-.56-.92 2.9 2.9 0 0 0-.52.94zm12.28-3.98c-.34.77-.36 1.45-.06 1.9.3.45.93.7 1.76.7h1.69c.84 0 1.48-.25 1.78-.71.31-.46.29-1.14-.03-1.92l-2.54-5.99zM22.5 0A22.52 22.52 0 0 1 45 22.5 22.52 22.52 0 0 1 22.5 45 22.52 22.52 0 0 1 0 22.5 22.52 22.52 0 0 1 22.5 0z"/></svg>